<svg width="1819" height="352" viewBox="0 0 1819 352" fill="none" xmlns="http://www.w3.org/2000/svg">
<path d="M1725.77 60.1276V146.095H1805.28V200.757H1725.77V293.184H1818.2V347.846H1665.15V4.96924H1818.2V60.1276H1725.77Z" fill="#121212"/>
<path d="M1452.27 4.96924H1547.19C1576.01 4.96924 1598.87 13.4169 1616.26 29.8154C1633.65 46.7108 1642.6 71.0599 1642.6 103.36V249.455C1642.6 281.755 1633.15 306.104 1615.26 323C1596.88 339.895 1573.03 347.846 1544.2 347.846H1452.27V4.96924ZM1545.7 293.184C1557.12 293.184 1566.07 288.712 1572.03 279.767C1578 270.823 1581.47 258.4 1581.47 242.498V113.795C1581.47 96.403 1578.49 82.9861 1572.53 74.0415C1566.57 65.0969 1557.62 60.1276 1545.7 60.1276H1512.9V293.184H1545.7Z" fill="#121212"/>
<path d="M1261.13 326.975C1243.73 310.08 1235.29 285.73 1235.29 253.431V98.8876C1235.29 66.5876 1244.23 42.2384 1262.62 25.3431C1280.51 8.4477 1304.86 0 1334.67 0C1363.49 0 1386.35 8.4477 1403.74 25.3431C1421.14 42.2384 1430.08 66.5876 1430.08 98.8876V253.431C1430.08 285.234 1420.64 309.583 1402.25 326.478C1383.87 343.374 1360.01 351.821 1331.19 351.821C1301.38 351.821 1278.02 343.87 1261.13 326.975ZM1359.52 283.743C1365.48 274.798 1368.96 262.375 1368.96 246.474V108.826C1368.96 91.4338 1365.98 78.0168 1360.01 69.0722C1354.05 60.1276 1345.11 55.6553 1333.18 55.6553C1320.26 55.6553 1310.82 60.1276 1304.86 69.0722C1298.89 78.0168 1296.41 91.4338 1296.41 109.323V246.971C1296.41 280.264 1308.33 297.16 1333.18 297.16C1344.61 297.16 1353.55 292.687 1359.52 283.743Z" fill="#121212"/>
<path d="M1212.99 4.96924V347.846H1151.87V147.089L1108.14 281.258H1075.35L1032.11 148.58V347.846H970.993V4.96924H1032.11L1091.75 185.849L1151.87 4.96924H1212.99Z" fill="#121212"/>
<path d="M902.544 60.1276H843.41V347.846H782.785V60.1276H723.155V4.96924H902.544V60.1276Z" fill="#121212"/>
<path d="M637.8 4.96924H698.424V347.846H637.8V4.96924Z" fill="#121212"/>
<path d="M455.083 325.484C439.181 308.092 430.734 283.246 430.734 250.449H488.377C488.874 267.344 492.352 279.767 498.315 287.718C504.278 295.669 513.223 299.644 525.149 299.644C537.075 299.644 546.02 295.669 551.486 288.712C556.952 281.258 559.437 269.829 559.437 253.927C559.437 240.511 556.455 230.075 550.492 222.124C544.529 214.174 534.093 207.217 519.683 200.757L496.327 190.321C473.966 180.383 458.064 167.96 448.126 153.549C438.187 138.641 433.218 119.261 433.218 94.9122C433.218 66.0907 441.666 42.7354 458.561 25.84C475.457 8.44769 497.818 0 526.143 0C554.467 0 576.332 8.4477 591.737 25.3431C607.141 42.2384 615.092 67.0846 616.086 99.3845H559.934C559.934 83.483 556.952 72.0538 551.983 64.103C547.013 56.1523 538.069 52.6738 526.143 52.6738C504.278 52.6738 492.849 65.5938 492.849 91.9307C492.849 103.857 495.831 113.298 501.297 120.255C506.763 127.212 515.707 133.672 528.627 139.138L550.989 149.077C574.841 160.009 592.233 172.929 603.166 188.831C614.098 204.732 619.067 226.1 619.067 252.437C619.067 284.24 611.116 309.086 594.221 325.981C577.823 343.373 554.467 351.821 524.155 351.821C493.843 351.821 470.984 343.373 455.083 325.484Z" fill="#121212"/>
<path d="M254.549 325.484C238.648 308.092 230.2 283.246 230.2 250.449H287.843C288.34 267.344 291.818 279.767 297.781 287.718C303.745 295.669 312.689 299.644 324.615 299.644C336.541 299.644 345.486 295.669 350.952 288.712C356.418 281.258 358.903 269.829 358.903 253.927C358.903 240.511 355.921 230.075 349.958 222.124C343.995 214.174 333.56 207.217 319.149 200.757L295.794 190.321C273.432 180.383 257.531 167.96 247.592 153.549C237.654 138.641 232.685 119.261 232.685 94.9122C232.685 66.0907 241.132 42.7354 258.028 25.84C274.923 8.44769 297.285 0 325.609 0C353.934 0 375.798 8.4477 391.203 25.3431C406.607 42.2384 414.558 67.0846 415.552 99.3845H359.4C359.4 83.483 356.418 72.0538 351.449 64.103C346.48 56.1523 337.535 52.6738 325.609 52.6738C303.745 52.6738 292.315 65.5938 292.315 91.9307C292.315 103.857 295.297 113.298 300.763 120.255C306.229 127.212 315.174 133.672 328.094 139.138L350.455 149.077C374.308 160.009 391.7 172.929 402.632 188.831C413.564 204.732 418.534 226.1 418.534 252.437C418.534 284.24 410.583 309.086 393.687 325.981C377.289 343.373 353.934 351.821 323.621 351.821C293.309 351.821 270.451 343.373 254.549 325.484Z" fill="#121212"/>
<path d="M157.524 281.258H77.5199L63.6061 347.846H0L87.9553 4.96924H147.586L235.044 347.846H171.438L157.524 281.258ZM146.592 226.597L117.771 87.4584L88.9491 226.597H146.592Z" fill="#121212"/>
</svg>
